<?xml version="1.0" standalone="no"?>
<!DOCTYPE svg PUBLIC "-//W3C//DTD SVG 20010904//EN"
 "http://www.w3.org/TR/2001/REC-SVG-20010904/DTD/svg10.dtd">
<svg version="1.0" xmlns="http://www.w3.org/2000/svg"
 width="174.000000pt" height="107.000000pt" viewBox="0 0 174.000000 107.000000"
 preserveAspectRatio="xMidYMid meet">
<metadata>
Created by potrace 1.16, written by Peter Selinger 2001-2019
</metadata>
<g transform="translate(0.000000,107.000000) scale(0.100000,-0.100000)"
fill="#000000" stroke="none">
<path d="M150 280 c0 -6 -33 -10 -77 -11 -43 -1 -70 -3 -60 -6 15 -4 17 -17
17 -93 0 -76 -2 -89 -17 -93 -10 -3 19 -5 64 -6 54 -1 83 -5 87 -13 5 -10 7
-10 12 0 4 8 35 12 102 13 54 0 91 3 85 6 -19 7 -17 97 3 114 13 10 17 10 25
-2 13 -21 11 -106 -3 -112 -7 -3 56 -6 140 -6 l152 -1 0 -36 c0 -29 3 -35 16
-30 9 3 26 6 40 6 18 0 25 7 29 27 13 68 50 163 65 166 8 3 -3 5 -25 5 -22 0
-32 -2 -23 -5 15 -4 15 -8 1 -51 l-16 -46 -19 44 c-15 34 -16 45 -6 52 8 4
-10 7 -42 7 -30 0 -49 -3 -42 -6 18 -7 94 -161 86 -174 -9 -15 -44 20 -44 44
0 12 -5 17 -14 14 -9 -4 -27 14 -50 49 -20 29 -36 57 -36 61 1 15 47 61 66 66
11 3 -3 5 -31 5 -32 0 -43 -2 -31 -7 18 -7 17 -11 -17 -47 l-36 -39 -1 42 c0
31 4 43 18 46 9 3 -12 5 -48 5 -36 0 -57 -2 -47 -5 15 -4 17 -17 17 -94 0 -88
0 -89 -25 -89 -24 0 -25 3 -25 53 0 70 -25 97 -72 79 -21 -8 -36 -8 -50 -1
-10 6 -29 7 -41 3 -12 -4 -40 -7 -62 -6 -22 0 -32 -2 -22 -4 23 -7 26 -124 2
-124 -10 0 -15 10 -15 30 0 17 -4 30 -10 30 -5 0 -10 -9 -10 -20 0 -21 -27
-40 -59 -40 -18 0 -21 6 -21 40 0 43 20 55 39 23 8 -14 10 -8 10 27 -1 25 -3
37 -6 28 -2 -10 -13 -18 -24 -18 -16 0 -19 7 -19 40 0 22 5 40 11 40 21 0 50
-22 59 -43 7 -17 9 -12 9 26 1 26 -1 47 -4 47 -3 0 -5 -4 -5 -10z"/>
<path d="M1040 280 c0 -5 -22 -10 -49 -10 -43 0 -53 -4 -75 -31 -66 -78 -2
-194 98 -175 23 5 36 3 39 -6 3 -7 6 12 6 42 l1 55 -17 -33 c-19 -39 -57 -52
-81 -28 -12 12 -17 34 -17 75 1 62 15 91 45 91 21 0 50 -31 50 -53 0 -9 5 -17
10 -17 6 0 10 23 10 50 0 28 -4 50 -10 50 -5 0 -10 -4 -10 -10z"/>
<path d="M1653 263 c11 -3 17 -14 17 -34 0 -27 -1 -28 -25 -17 -39 18 -79 -16
-83 -69 -3 -34 1 -44 25 -62 18 -15 34 -20 48 -16 11 4 40 7 65 7 25 0 37 2
28 5 -16 4 -18 17 -18 99 l0 94 -37 -1 c-21 -1 -30 -3 -20 -6z"/>
<path d="M1240 213 c-53 -20 -69 -93 -29 -129 27 -25 91 -25 118 0 27 25 28
86 3 109 -20 19 -69 29 -92 20z"/>
<path d="M1368 203 c6 -2 12 -22 12 -43 0 -51 14 -87 37 -94 10 -2 45 -1 78 3
33 5 54 9 48 10 -9 1 -13 20 -13 60 0 38 4 61 13 64 6 3 -13 5 -43 5 -30 0
-47 -2 -37 -5 23 -6 24 -94 1 -114 -23 -19 -34 4 -34 69 l0 52 -37 -1 c-21 0
-32 -3 -25 -6z"/>
</g>
</svg>
